<svg width="100" height="100" viewBox="0 0 100 100" fill="none" xmlns="http://www.w3.org/2000/svg">
<path fill-rule="evenodd" clip-rule="evenodd" d="M39.292 71.6746C39.1017 71.6756 38.9162 71.6151 38.763 71.5022L35.3795 69.0386L31.9935 71.4973C31.8401 71.6096 31.655 71.6703 31.4648 71.6706C31.2747 71.6709 31.0894 71.6109 30.9356 71.4992C30.7817 71.3874 30.6673 71.2298 30.6088 71.0489C30.5503 70.868 30.5507 70.6732 30.61 70.4925L31.9037 66.5144L28.5179 64.0556C28.3652 63.9435 28.2517 63.786 28.1937 63.6057C28.1357 63.4254 28.1359 63.2314 28.1945 63.0513C28.2532 62.8711 28.3671 62.7141 28.5201 62.6024C28.6731 62.4908 28.8575 62.4302 29.0469 62.4294H33.2289L34.5226 58.4512C34.5834 58.2742 34.6979 58.1205 34.8502 58.0117C35.0025 57.9029 35.185 57.8444 35.3722 57.8444C35.5593 57.8444 35.7419 57.9029 35.8942 58.0117C36.0465 58.1205 36.161 58.2742 36.2217 58.4512L37.5154 62.4294H41.6974C41.8868 62.4302 42.0712 62.4908 42.2242 62.6024C42.3772 62.7141 42.4912 62.8711 42.5498 63.0513C42.6084 63.2314 42.6086 63.4254 42.5506 63.6057C42.4926 63.786 42.3793 63.9435 42.2266 64.0556L38.8406 66.5144L40.1343 70.4949C40.1924 70.6752 40.192 70.8692 40.1331 71.0493C40.0743 71.2293 39.96 71.3862 39.8066 71.4973C39.6579 71.6089 39.4779 71.671 39.292 71.6746V71.6746Z" fill="#F83718"/>
<path fill-rule="evenodd" clip-rule="evenodd" d="M55.6994 67.0967C55.5091 67.0974 55.3236 67.037 55.1702 66.9244L50.3158 63.4074L45.4615 66.9244C45.308 67.0366 45.123 67.0973 44.9329 67.0976C44.7428 67.0979 44.5574 67.0379 44.4036 66.9262C44.2498 66.8144 44.1353 66.6568 44.0768 66.4759C44.0183 66.295 44.0187 66.1001 44.078 65.9195L45.9299 60.2278L41.0756 56.7083C40.9215 56.5971 40.8067 56.44 40.7476 56.2594C40.6886 56.0788 40.6883 55.8842 40.7468 55.7035C40.8053 55.5228 40.9197 55.3652 41.0734 55.2536C41.2271 55.1419 41.4123 55.0819 41.6023 55.0821H47.5901L49.4396 49.388C49.4984 49.2076 49.6127 49.0504 49.7661 48.9389C49.9196 48.8273 50.1043 48.767 50.294 48.7666C50.4841 48.7665 50.6694 48.8265 50.8233 48.9382C50.9772 49.0498 51.0919 49.2072 51.1509 49.388L53.0003 55.0821H58.9883C59.1782 55.0819 59.3634 55.1419 59.5171 55.2536C59.6708 55.3652 59.7851 55.5228 59.8436 55.7035C59.9021 55.8842 59.9018 56.0788 59.8428 56.2594C59.7837 56.44 59.669 56.5971 59.5149 56.7083L54.6606 60.2278L56.51 65.9195C56.5693 66.0998 56.5698 66.2944 56.5113 66.475C56.4528 66.6556 56.3385 66.813 56.1848 66.9244C56.0443 67.0298 55.8749 67.0899 55.6994 67.0967V67.0967Z" fill="#F83718"/>
<path fill-rule="evenodd" clip-rule="evenodd" d="M61.6876 71.6747C61.5457 71.6748 61.4058 71.6413 61.2793 71.5769C61.1529 71.5125 61.0434 71.419 60.9601 71.3041C60.8767 71.1892 60.8217 71.0562 60.7997 70.916C60.7777 70.7758 60.7891 70.6324 60.8332 70.4975L62.127 66.5194L58.7411 64.0606C58.5871 63.9494 58.4722 63.7922 58.4132 63.6117C58.3541 63.4311 58.3538 63.2365 58.4123 63.0557C58.4709 62.875 58.5853 62.7175 58.739 62.6058C58.8927 62.4942 59.0778 62.4342 59.2678 62.4344H63.4522L64.7435 58.4562C64.8028 58.2757 64.9175 58.1184 65.0713 58.0069C65.2252 57.8953 65.4102 57.8351 65.6003 57.8349V57.8349C65.7901 57.8349 65.975 57.895 66.1285 58.0066C66.282 58.1183 66.3962 58.2756 66.4546 58.4562L67.7459 62.4344H71.9304C72.1204 62.4342 72.3055 62.4942 72.4592 62.6058C72.6129 62.7175 72.7273 62.875 72.7858 63.0557C72.8444 63.2365 72.8441 63.4311 72.785 63.6117C72.7259 63.7922 72.6111 63.9494 72.4571 64.0606L69.0736 66.5194L70.3648 70.4999C70.4233 70.6804 70.4231 70.8748 70.3643 71.0552C70.3055 71.2356 70.1911 71.3927 70.0375 71.504C69.8838 71.6153 69.6989 71.6751 69.5091 71.6748C69.3194 71.6745 69.1347 71.6141 68.9814 71.5023L65.6051 69.0388L62.2071 71.5023C62.0565 71.6132 61.8746 71.6735 61.6876 71.6747V71.6747Z" fill="#F83718"/>
<path fill-rule="evenodd" clip-rule="evenodd" d="M77.811 90.9998H22.2674C19.9797 90.9972 17.7865 90.0873 16.1688 88.4696C14.5512 86.852 13.6412 84.6588 13.6387 82.3711V33.1163C13.6412 30.8288 14.5513 28.6359 16.169 27.0186C17.7867 25.4014 19.9799 24.492 22.2674 24.4901H77.811C80.0985 24.492 82.2918 25.4014 83.9095 27.0186C85.5272 28.6359 86.4371 30.8288 86.4396 33.1163V82.3687C86.4364 84.6562 85.5263 86.849 83.9089 88.4665C82.2914 90.084 80.0985 90.9941 77.811 90.9973V90.9998ZM22.2674 26.2886C20.4567 26.2912 18.7208 27.0116 17.4405 28.2919C16.1602 29.5723 15.4398 31.308 15.4373 33.1187V82.3711C15.4392 84.182 16.1593 85.9182 17.4398 87.1986C18.7203 88.4791 20.4565 89.1993 22.2674 89.2012H77.811C79.6219 89.1993 81.358 88.4791 82.6385 87.1986C83.919 85.9182 84.6392 84.182 84.6412 82.3711V33.1163C84.6392 31.3054 83.919 29.5693 82.6385 28.2888C81.358 27.0083 79.6219 26.2881 77.811 26.2862L22.2674 26.2886Z" fill="#F83718"/>
<path fill-rule="evenodd" clip-rule="evenodd" d="M85.5395 38.8708H14.5395C14.4174 38.8772 14.2955 38.8587 14.1808 38.8163C14.0662 38.774 13.9614 38.7088 13.8728 38.6246C13.7842 38.5405 13.7136 38.4392 13.6654 38.327C13.6172 38.2147 13.5923 38.0937 13.5923 37.9716C13.5923 37.8494 13.6172 37.7285 13.6654 37.6162C13.7136 37.5039 13.7842 37.4027 13.8728 37.3185C13.9614 37.2344 14.0662 37.1692 14.1808 37.1268C14.2955 37.0845 14.4174 37.066 14.5395 37.0723H85.5395C85.7699 37.0843 85.9869 37.1843 86.1458 37.3516C86.3046 37.5189 86.3932 37.7408 86.3932 37.9716C86.3932 38.2023 86.3046 38.4242 86.1458 38.5916C85.9869 38.7589 85.7699 38.8589 85.5395 38.8708V38.8708Z" fill="#F83718"/>
<path fill-rule="evenodd" clip-rule="evenodd" d="M40.8258 34.6018C40.2497 34.6018 39.6865 34.4309 39.2075 34.1109C38.7286 33.7908 38.3552 33.3359 38.1348 32.8037C37.9143 32.2715 37.8567 31.6859 37.9691 31.1209C38.0815 30.5559 38.3589 30.0369 38.7662 29.6296C39.1735 29.2222 39.6925 28.9448 40.2575 28.8325C40.8225 28.7201 41.4082 28.7777 41.9404 28.9982C42.4726 29.2186 42.9274 29.592 43.2475 30.0709C43.5675 30.5499 43.7384 31.1131 43.7384 31.6891C43.7384 32.4616 43.4315 33.2024 42.8853 33.7486C42.3391 34.2949 41.5982 34.6018 40.8258 34.6018Z" fill="#F83718"/>
<path fill-rule="evenodd" clip-rule="evenodd" d="M32.7387 34.6018C32.1627 34.6018 31.5996 34.4309 31.1206 34.1109C30.6417 33.7908 30.2683 33.3359 30.0478 32.8037C29.8274 32.2715 29.7698 31.6859 29.8822 31.1209C29.9945 30.5559 30.2718 30.0369 30.6792 29.6296C31.0865 29.2222 31.6056 28.9448 32.1706 28.8325C32.7356 28.7201 33.3211 28.7777 33.8534 28.9982C34.3856 29.2186 34.8405 29.592 35.1606 30.0709C35.4806 30.5499 35.6513 31.1131 35.6513 31.6891C35.6513 32.4616 35.3445 33.2024 34.7983 33.7486C34.252 34.2949 33.5112 34.6018 32.7387 34.6018Z" fill="#F83718"/>
<path fill-rule="evenodd" clip-rule="evenodd" d="M24.6489 34.6018C24.0728 34.6018 23.5098 34.4309 23.0308 34.1109C22.5518 33.7908 22.1784 33.3359 21.958 32.8037C21.7375 32.2715 21.6799 31.6859 21.7923 31.1209C21.9047 30.5559 22.1821 30.0369 22.5894 29.6296C22.9968 29.2222 23.5157 28.9448 24.0807 28.8325C24.6457 28.7201 25.2313 28.7777 25.7635 28.9982C26.2957 29.2186 26.7507 29.592 27.0707 30.0709C27.3908 30.5499 27.5615 31.1131 27.5615 31.6891C27.5615 32.4616 27.2546 33.2024 26.7084 33.7486C26.1622 34.2949 25.4213 34.6018 24.6489 34.6018Z" fill="#F83718"/>
<path fill-rule="evenodd" clip-rule="evenodd" d="M78.35 83.8082H21.7287C21.6107 83.8085 21.4937 83.7855 21.3846 83.7405C21.2755 83.6954 21.1764 83.6293 21.093 83.5459C21.0095 83.4624 20.9434 83.3632 20.8984 83.2541C20.8533 83.145 20.8302 83.0281 20.8306 82.9101V45.1625C20.8306 44.9243 20.9253 44.6959 21.0937 44.5275C21.2621 44.3591 21.4905 44.2645 21.7287 44.2645H78.35C78.5882 44.2645 78.8167 44.3591 78.9851 44.5275C79.1535 44.6959 79.2481 44.9243 79.2481 45.1625V82.9101C79.2481 83.1483 79.1535 83.3767 78.9851 83.5452C78.8167 83.7136 78.5882 83.8082 78.35 83.8082V83.8082ZM22.6292 82.012H77.452V46.0606H22.6292V82.012Z" fill="#F83718"/>
<path fill-rule="evenodd" clip-rule="evenodd" d="M78.3501 77.5168H21.7288C21.4984 77.5049 21.2813 77.4049 21.1225 77.2376C20.9636 77.0702 20.875 76.8483 20.875 76.6176C20.875 76.3869 20.9636 76.1649 21.1225 75.9976C21.2813 75.8303 21.4984 75.7303 21.7288 75.7183H78.3501C78.5805 75.7303 78.7975 75.8303 78.9564 75.9976C79.1153 76.1649 79.2039 76.3869 79.2039 76.6176C79.2039 76.8483 79.1153 77.0702 78.9564 77.2376C78.7975 77.4049 78.5805 77.5049 78.3501 77.5168Z" fill="#F83718"/>
<path fill-rule="evenodd" clip-rule="evenodd" d="M81.0464 19.0993C80.1573 19.0998 79.2879 18.8366 78.5484 18.3429C77.8088 17.8493 77.2322 17.1474 76.8916 16.326C76.551 15.5047 76.4618 14.6008 76.6349 13.7287C76.8081 12.8565 77.236 12.0554 77.8645 11.4265C78.4931 10.7976 79.294 10.3692 80.1661 10.1956C81.0381 10.0219 81.942 10.1108 82.7636 10.451C83.5851 10.7911 84.2874 11.3672 84.7814 12.1065C85.2754 12.8458 85.5391 13.715 85.5391 14.6041C85.5378 15.7955 85.0641 16.9377 84.2219 17.7804C83.3797 18.623 82.2378 19.0974 81.0464 19.0993V19.0993ZM81.0464 11.9099C80.513 11.9095 79.9913 12.0672 79.5476 12.3633C79.1038 12.6593 78.7578 13.0802 78.5533 13.5729C78.3489 14.0656 78.2951 14.6079 78.3989 15.1312C78.5027 15.6544 78.7593 16.1352 79.1363 16.5125C79.5133 16.8899 79.9938 17.1469 80.517 17.2512C81.0402 17.3554 81.5825 17.3022 82.0754 17.0982C82.5682 16.8941 82.9896 16.5485 83.286 16.1049C83.5824 15.6614 83.7406 15.14 83.7406 14.6066C83.74 13.892 83.456 13.2068 82.9509 12.7013C82.4459 12.1958 81.761 11.9112 81.0464 11.9099V11.9099Z" fill="#F83718"/>
<path fill-rule="evenodd" clip-rule="evenodd" d="M28.9182 20.0094C27.8514 20.0094 26.8086 19.693 25.9216 19.1003C25.0347 18.5076 24.3433 17.6651 23.9352 16.6795C23.5271 15.6939 23.4204 14.6093 23.6287 13.5631C23.837 12.5169 24.3509 11.5559 25.1054 10.8017C25.8599 10.0475 26.8211 9.53413 27.8674 9.32631C28.9137 9.11849 29.9983 9.22558 30.9837 9.63415C31.9692 10.0427 32.8113 10.7344 33.4036 11.6216C33.9959 12.5089 34.3118 13.5518 34.3113 14.6186C34.3094 16.0481 33.7405 17.4185 32.7295 18.4291C31.7184 19.4398 30.3477 20.0081 28.9182 20.0094V20.0094ZM28.9182 11.0288C28.2071 11.0288 27.512 11.2396 26.9208 11.6347C26.3296 12.0298 25.8689 12.5914 25.5969 13.2484C25.3249 13.9054 25.2538 14.6282 25.3927 15.3256C25.5316 16.023 25.8742 16.6635 26.3772 17.1661C26.8802 17.6688 27.5209 18.0109 28.2183 18.1493C28.9158 18.2878 29.6386 18.2162 30.2954 17.9438C30.9522 17.6713 31.5135 17.2102 31.9082 16.6188C32.3029 16.0273 32.5133 15.3321 32.5128 14.621C32.5144 14.1478 32.4226 13.6789 32.2427 13.2413C32.0628 12.8036 31.7982 12.4058 31.4643 12.0705C31.1304 11.7352 30.7336 11.4691 30.2967 11.2874C29.8598 11.1058 29.3913 11.0121 28.9182 11.0118V11.0288Z" fill="#F83718"/>
</svg>
