<svg width="100" height="100" viewBox="0 0 100 100" fill="none" xmlns="http://www.w3.org/2000/svg">
<path fill-rule="evenodd" clip-rule="evenodd" d="M31.6284 54.4219C29.7331 54.4219 27.8805 53.8599 26.3046 52.807C24.7288 51.7541 23.5006 50.2575 22.7753 48.5065C22.05 46.7555 21.8603 44.8288 22.23 42.97C22.5998 41.1111 23.5124 39.4037 24.8525 38.0636C26.1927 36.7234 27.9001 35.8108 29.7589 35.441C31.6178 35.0713 33.5445 35.261 35.2955 35.9863C37.0464 36.7116 38.543 37.9398 39.596 39.5157C40.6489 41.0915 41.211 42.9442 41.211 44.8394C41.2077 47.3799 40.1971 49.8154 38.4007 51.6117C36.6044 53.4081 34.1688 54.4187 31.6284 54.4219ZM33.5701 43.2569L34.2983 41.8855C33.9765 41.701 33.6424 41.5388 33.2983 41.4001C32.9038 41.2428 32.4884 41.1439 32.0653 41.1064V40.0846H31.3663V41.1064C31.0557 41.136 30.7509 41.2096 30.4609 41.3249C30.1914 41.4304 29.9444 41.5861 29.7328 41.7836C29.5267 41.9844 29.3618 42.2235 29.2474 42.4875C29.1215 42.7827 29.0595 43.1011 29.0653 43.4219C29.0606 43.6633 29.1001 43.9035 29.1818 44.1307C29.2604 44.332 29.3813 44.514 29.5362 44.6647C29.7133 44.8331 29.9166 44.9716 30.1381 45.0749C30.4152 45.207 30.7026 45.3166 30.9973 45.4025L31.4828 45.5457V46.888C31.2416 46.8568 31.0042 46.8015 30.7741 46.7229C30.5459 46.6452 30.3396 46.5627 30.1576 46.4802C30.0019 46.4094 29.851 46.3283 29.7061 46.2375C29.628 46.1889 29.5549 46.1328 29.4876 46.07L28.7595 47.5263C29.1402 47.7772 29.5533 47.9748 29.9876 48.1137C30.4358 48.2595 30.8992 48.3539 31.3687 48.3953V49.5797H32.0653V48.4074C32.3786 48.3944 32.6892 48.343 32.9901 48.2545C33.2717 48.1747 33.536 48.043 33.7692 47.8661C33.9973 47.69 34.1824 47.4642 34.3104 47.2059C34.4502 46.9017 34.5191 46.5698 34.5119 46.2351C34.5191 45.944 34.4654 45.6546 34.3542 45.3855C34.2527 45.1544 34.1009 44.9488 33.91 44.7836C33.6992 44.6082 33.4615 44.4681 33.206 44.3686C32.9025 44.2477 32.5921 44.1447 32.2765 44.0603L31.9536 43.9802V42.5967C32.1445 42.6236 32.3323 42.6691 32.5143 42.7326C32.6988 42.7982 32.8687 42.8637 33.0192 42.9341C33.1479 42.9925 33.2727 43.059 33.3929 43.1331C33.4577 43.1676 33.5173 43.2109 33.5701 43.2618V43.2569ZM30.7692 43.1671C30.7657 43.2427 30.7799 43.318 30.8106 43.3871C30.8414 43.4562 30.8879 43.5172 30.9464 43.5652C31.103 43.688 31.2818 43.7795 31.4731 43.8346V42.5919C30.9998 42.6331 30.7643 42.8346 30.7643 43.1792L30.7692 43.1671ZM32.7303 46.3807C32.7331 46.3 32.7149 46.2201 32.6774 46.1486C32.64 46.0771 32.5846 46.0166 32.5168 45.9729C32.3411 45.8589 32.1509 45.7691 31.9512 45.7059V46.9195C32.4674 46.9017 32.7255 46.7237 32.7255 46.3855L32.7303 46.3807Z" fill="#F83718"/>
<path fill-rule="evenodd" clip-rule="evenodd" d="M62.1187 34.3857H49.9197C49.6886 34.3857 49.467 34.2939 49.3036 34.1304C49.1402 33.967 49.0483 33.7454 49.0483 33.5143C49.0483 33.2832 49.1402 33.0616 49.3036 32.8982C49.467 32.7347 49.6886 32.6429 49.9197 32.6429H62.114C62.3451 32.6429 62.5666 32.7347 62.73 32.8982C62.8934 33.0616 62.9853 33.2832 62.9853 33.5143C62.9853 33.7454 62.8934 33.967 62.73 34.1304C62.5666 34.2939 62.3451 34.3857 62.114 34.3857H62.1187Z" fill="#F83718"/>
<path fill-rule="evenodd" clip-rule="evenodd" d="M76.0557 38.7375H49.9197C49.6886 38.7375 49.467 38.6457 49.3036 38.4823C49.1402 38.3189 49.0483 38.0973 49.0483 37.8662C49.0483 37.6351 49.1402 37.4134 49.3036 37.25C49.467 37.0866 49.6886 36.9948 49.9197 36.9948H76.0532C76.2843 36.9948 76.5059 37.0866 76.6694 37.25C76.8328 37.4134 76.9245 37.6351 76.9245 37.8662C76.9245 38.0973 76.8328 38.3189 76.6694 38.4823C76.5059 38.6457 76.2843 38.7375 76.0532 38.7375H76.0557Z" fill="#F83718"/>
<path fill-rule="evenodd" clip-rule="evenodd" d="M62.1187 43.9678H49.9197C49.6886 43.9678 49.467 43.876 49.3036 43.7126C49.1402 43.5492 49.0483 43.3276 49.0483 43.0965C49.0483 42.8654 49.1402 42.6437 49.3036 42.4803C49.467 42.3169 49.6886 42.2251 49.9197 42.2251H62.114C62.3451 42.2251 62.5666 42.3169 62.73 42.4803C62.8934 42.6437 62.9853 42.8654 62.9853 43.0965C62.9853 43.3276 62.8934 43.5492 62.73 43.7126C62.5666 43.876 62.3451 43.9678 62.114 43.9678H62.1187Z" fill="#F83718"/>
<path fill-rule="evenodd" clip-rule="evenodd" d="M76.0557 48.3249H49.9197C49.6886 48.3249 49.467 48.2331 49.3036 48.0697C49.1402 47.9062 49.0483 47.6846 49.0483 47.4535C49.0483 47.2224 49.1402 47.0008 49.3036 46.8374C49.467 46.674 49.6886 46.5822 49.9197 46.5822H76.0532C76.2843 46.5822 76.5059 46.674 76.6694 46.8374C76.8328 47.0008 76.9245 47.2224 76.9245 47.4535C76.9245 47.6846 76.8328 47.9062 76.6694 48.0697C76.5059 48.2331 76.2843 48.3249 76.0532 48.3249H76.0557Z" fill="#F83718"/>
<path fill-rule="evenodd" clip-rule="evenodd" d="M62.1187 53.5433H49.9197C49.6886 53.5433 49.467 53.4515 49.3036 53.2881C49.1402 53.1247 49.0483 52.9031 49.0483 52.672C49.0483 52.4409 49.1402 52.2192 49.3036 52.0558C49.467 51.8924 49.6886 51.8006 49.9197 51.8006H62.114C62.3451 51.8006 62.5666 51.8924 62.73 52.0558C62.8934 52.2192 62.9853 52.4409 62.9853 52.672C62.9853 52.9031 62.8934 53.1247 62.73 53.2881C62.5666 53.4515 62.3451 53.5433 62.114 53.5433H62.1187Z" fill="#F83718"/>
<path fill-rule="evenodd" clip-rule="evenodd" d="M76.056 57.9125H49.92C49.8019 57.9187 49.6837 57.9008 49.5727 57.8599C49.4617 57.819 49.3602 57.7559 49.2743 57.6745C49.1885 57.5931 49.1201 57.4951 49.0734 57.3864C49.0267 57.2777 49.0027 57.1606 49.0027 57.0423C49.0027 56.924 49.0267 56.807 49.0734 56.6983C49.1201 56.5896 49.1885 56.4915 49.2743 56.4101C49.3602 56.3287 49.4617 56.2656 49.5727 56.2247C49.6837 56.1838 49.8019 56.1659 49.92 56.1722H76.0535C76.1716 56.1659 76.2898 56.1838 76.4008 56.2247C76.5118 56.2656 76.6133 56.3287 76.6991 56.4101C76.785 56.4915 76.8533 56.5896 76.9 56.6983C76.9467 56.807 76.9708 56.924 76.9708 57.0423C76.9708 57.1606 76.9467 57.2777 76.9 57.3864C76.8533 57.4951 76.785 57.5931 76.6991 57.6745C76.6133 57.7559 76.5118 57.819 76.4008 57.8599C76.2898 57.9008 76.1716 57.9187 76.0535 57.9125H76.056Z" fill="#F83718"/>
<path fill-rule="evenodd" clip-rule="evenodd" d="M44.1844 91.0092H35.9854C35.841 91.0087 35.699 90.9725 35.572 90.9039C35.4449 90.8353 35.3368 90.7364 35.2573 90.616C35.1774 90.4958 35.1289 90.3575 35.1162 90.2138C35.1034 90.0701 35.1269 89.9255 35.1844 89.7931L40.4102 77.599C40.4778 77.4427 40.5896 77.3095 40.7319 77.216C40.8742 77.1224 41.0408 77.0724 41.2111 77.0723H46.3349C46.4621 77.0721 46.5879 77.0999 46.7032 77.1535C46.8186 77.2072 46.9209 77.2854 47.0028 77.3828C47.0847 77.4802 47.1442 77.5944 47.1773 77.7173C47.2104 77.8401 47.2161 77.9688 47.1941 78.0941L45.0412 90.2883C45.0074 90.4913 44.9028 90.6758 44.746 90.8091C44.5891 90.9423 44.3902 91.0158 44.1844 91.0164V91.0092ZM37.2985 89.2664H43.4441L45.2888 78.815H41.7791L37.2985 89.2664Z" fill="#F83718"/>
<path fill-rule="evenodd" clip-rule="evenodd" d="M63.8591 91.0093H55.6625C55.4563 91.0092 55.2568 90.936 55.0995 90.8027C54.9421 90.6694 54.8372 90.4846 54.8033 90.2811L52.6527 78.087C52.6303 77.9618 52.6357 77.8332 52.6685 77.7103C52.7012 77.5874 52.7606 77.4732 52.8423 77.3758C52.9241 77.2783 53.0262 77.2 53.1415 77.1463C53.2568 77.0926 53.3824 77.0649 53.5096 77.0651H58.6333C58.8036 77.0656 58.97 77.1157 59.1122 77.2092C59.2545 77.3028 59.3665 77.4357 59.4344 77.5918L64.66 89.786C64.7166 89.9185 64.7395 90.0629 64.7265 90.2064C64.7136 90.3499 64.6653 90.488 64.586 90.6082C64.5066 90.7285 64.3986 90.8272 64.2718 90.8955C64.1449 90.9638 64.0032 90.9995 63.8591 90.9996V91.0093ZM56.3907 89.2666H62.5411L58.0605 78.8151H54.5484L56.3907 89.2666Z" fill="#F83718"/>
<path fill-rule="evenodd" clip-rule="evenodd" d="M55.6623 91.0093H44.1841C44.0569 91.0096 43.9312 90.9819 43.8158 90.9282C43.7005 90.8745 43.5984 90.7962 43.5167 90.6987C43.4353 90.601 43.376 90.4868 43.3429 90.3641C43.3098 90.2413 43.3037 90.1129 43.3249 89.9875L45.4778 77.7909C45.5116 77.5879 45.6162 77.4034 45.773 77.2701C45.9298 77.1369 46.1288 77.0634 46.3346 77.0627H53.5094C53.7153 77.0629 53.9144 77.1362 54.0714 77.2696C54.2283 77.4029 54.3327 77.5877 54.3661 77.7909L56.519 89.9851C56.5414 90.1104 56.536 90.2391 56.5033 90.3621C56.4705 90.4851 56.4112 90.5994 56.3295 90.6971C56.2479 90.7947 56.1458 90.8733 56.0305 90.9272C55.9152 90.9812 55.7896 91.0092 55.6623 91.0093V91.0093ZM45.2253 89.2666H54.6283L52.7836 78.8152H47.07L45.2253 89.2666Z" fill="#F83718"/>
<path fill-rule="evenodd" clip-rule="evenodd" d="M84.8254 78.8125H15.0195C13.4181 78.8105 11.8828 78.1733 10.7507 77.0407C9.61852 75.9081 8.982 74.3726 8.98071 72.7712V67.4872C8.98071 67.3729 9.00326 67.2597 9.04708 67.1541C9.0909 67.0486 9.15511 66.9527 9.23605 66.8719C9.317 66.7912 9.41307 66.7273 9.51877 66.6837C9.62447 66.6402 9.73772 66.618 9.85203 66.6183H89.9952C90.1095 66.618 90.2228 66.6402 90.3285 66.6837C90.4342 66.7273 90.5303 66.7912 90.6113 66.8719C90.6922 66.9527 90.7565 67.0486 90.8003 67.1541C90.8441 67.2597 90.8667 67.3729 90.8667 67.4872V72.7712C90.8647 74.3729 90.2275 75.9083 89.095 77.0409C87.9624 78.1734 86.427 78.8105 84.8254 78.8125V78.8125ZM10.721 68.3489V72.7615C10.7223 73.9011 11.1755 74.9938 11.9814 75.7996C12.7872 76.6055 13.8799 77.0588 15.0195 77.06H84.8254C85.965 77.0588 87.0576 76.6055 87.8635 75.7996C88.6694 74.9938 89.1226 73.9011 89.1239 72.7615V68.3489H10.721Z" fill="#F83718"/>
<path fill-rule="evenodd" clip-rule="evenodd" d="M22.9173 89.2664C22.0556 89.2664 21.2133 89.0109 20.4968 88.5321C19.7804 88.0534 19.2219 87.373 18.8922 86.5769C18.5624 85.7808 18.4762 84.9048 18.6443 84.0596C18.8124 83.2145 19.2273 82.4382 19.8366 81.8289C20.4459 81.2196 21.2222 80.8046 22.0673 80.6365C22.9125 80.4684 23.7885 80.5547 24.5846 80.8844C25.3807 81.2142 26.0611 81.7726 26.5399 82.4891C27.0186 83.2056 27.2741 84.0479 27.2741 84.9096C27.2709 86.0641 26.8109 87.1704 25.9945 87.9868C25.1781 88.8032 24.0718 89.2632 22.9173 89.2664V89.2664ZM22.9173 82.2979C22.4003 82.2979 21.8949 82.4513 21.465 82.7385C21.0352 83.0257 20.7001 83.434 20.5022 83.9117C20.3044 84.3893 20.2526 84.9149 20.3535 85.422C20.4544 85.9291 20.7033 86.3949 21.0689 86.7605C21.4345 87.126 21.9003 87.375 22.4074 87.4759C22.9144 87.5767 23.4401 87.525 23.9177 87.3271C24.3954 87.1293 24.8036 86.7942 25.0908 86.3643C25.3781 85.9345 25.5314 85.429 25.5314 84.912C25.5308 84.2189 25.2551 83.5544 24.765 83.0643C24.2749 82.5742 23.6104 82.2986 22.9173 82.2979V82.2979Z" fill="#F83718"/>
<path fill-rule="evenodd" clip-rule="evenodd" d="M89.9929 68.3491H9.85204C9.73752 68.3495 9.6241 68.3271 9.51824 68.2835C9.41238 68.2398 9.3162 68.1756 9.23523 68.0946C9.15425 68.0137 9.09005 67.9175 9.04637 67.8116C9.0027 67.7057 8.9804 67.5923 8.98072 67.4778V30.3783C8.98329 27.9767 9.93844 25.6741 11.6366 23.9759C13.3348 22.2778 15.6373 21.3226 18.0389 21.32H81.8035C84.2055 21.3219 86.5087 22.2768 88.2074 23.9751C89.9061 25.6734 90.8616 27.9762 90.8642 30.3783V67.4875C90.8645 67.602 90.8422 67.7155 90.7985 67.8213C90.7548 67.9272 90.6907 68.0234 90.6097 68.1043C90.5287 68.1853 90.4326 68.2495 90.3267 68.2932C90.2208 68.3368 90.1074 68.3592 89.9929 68.3588V68.3491ZM10.721 66.6088H89.119V30.3783C89.1171 28.438 88.3455 26.5778 86.9736 25.2058C85.6016 23.8338 83.7414 23.0622 81.8011 23.0603H18.0389C16.0987 23.0622 14.2385 23.8338 12.8665 25.2058C11.4946 26.5778 10.7229 28.438 10.721 30.3783V66.6161V66.6088Z" fill="#F83718"/>
<path fill-rule="evenodd" clip-rule="evenodd" d="M81.5435 18.6065C80.6156 18.6065 79.7085 18.3313 78.9369 17.8158C78.1654 17.3002 77.5641 16.5675 77.209 15.7102C76.8539 14.8529 76.7609 13.9095 76.942 12.9994C77.123 12.0893 77.5698 11.2533 78.2259 10.5971C78.8821 9.94099 79.7181 9.49415 80.6282 9.31311C81.5383 9.13208 82.4817 9.22499 83.339 9.5801C84.1963 9.93521 84.929 10.5366 85.4446 11.3081C85.9601 12.0797 86.2353 12.9868 86.2353 13.9147C86.234 15.1586 85.7393 16.3513 84.8597 17.2309C83.9801 18.1105 82.7875 18.6052 81.5435 18.6065ZM81.5435 10.9657C80.9596 10.9652 80.3885 11.138 79.9028 11.4621C79.4171 11.7862 79.0384 12.2471 78.8147 12.7865C78.591 13.3259 78.5324 13.9196 78.6462 14.4923C78.76 15.0651 79.0412 15.5912 79.4541 16.0041C79.867 16.417 80.3931 16.6982 80.9659 16.812C81.5386 16.9258 82.1323 16.8671 82.6717 16.6435C83.2111 16.4198 83.6721 16.0411 83.9962 15.5554C84.3203 15.0696 84.493 14.4987 84.4925 13.9147C84.4919 13.1328 84.181 12.3831 83.6281 11.8301C83.0752 11.2772 82.3255 10.9663 81.5435 10.9657V10.9657Z" fill="#F83718"/>
<circle cx="32" cy="44" r="6" fill="#F83718"/>
</svg>
