<svg width="181" height="168" viewBox="0 0 181 168" fill="none" xmlns="http://www.w3.org/2000/svg">
<ellipse cx="30.2674" cy="2.4617" rx="2.46661" ry="2.4617" fill="white"/>
<ellipse cx="45.0643" cy="2.4617" rx="2.46661" ry="2.4617" fill="white"/>
<ellipse cx="59.8631" cy="2.4617" rx="2.46661" ry="2.4617" fill="white"/>
<ellipse cx="74.6639" cy="2.4617" rx="2.46661" ry="2.4617" fill="white"/>
<ellipse cx="89.4627" cy="2.4617" rx="2.46661" ry="2.4617" fill="white"/>
<ellipse cx="104.265" cy="2.4617" rx="2.46661" ry="2.4617" fill="white"/>
<ellipse cx="119.062" cy="2.4617" rx="2.46661" ry="2.4617" fill="white"/>
<ellipse cx="30.2694" cy="17.2312" rx="2.46661" ry="2.4617" fill="white"/>
<ellipse cx="45.0643" cy="17.2312" rx="2.46661" ry="2.4617" fill="white"/>
<ellipse cx="59.8631" cy="17.2312" rx="2.46661" ry="2.4617" fill="white"/>
<ellipse cx="74.6639" cy="17.2312" rx="2.46661" ry="2.4617" fill="white"/>
<ellipse cx="89.4627" cy="17.2312" rx="2.46661" ry="2.4617" fill="white"/>
<ellipse cx="104.265" cy="17.2312" rx="2.46661" ry="2.4617" fill="white"/>
<ellipse cx="119.064" cy="17.2312" rx="2.46661" ry="2.4617" fill="white"/>
<ellipse cx="30.2694" cy="32.0027" rx="2.46661" ry="2.4617" fill="white"/>
<ellipse cx="45.0643" cy="32.0027" rx="2.46661" ry="2.4617" fill="white"/>
<ellipse cx="59.8631" cy="32.0027" rx="2.46661" ry="2.4617" fill="white"/>
<ellipse cx="74.6639" cy="32.0027" rx="2.46661" ry="2.4617" fill="white"/>
<ellipse cx="89.4627" cy="32.0027" rx="2.46661" ry="2.4617" fill="white"/>
<ellipse cx="104.265" cy="32.0027" rx="2.46661" ry="2.4617" fill="white"/>
<ellipse cx="119.064" cy="32.0027" rx="2.46661" ry="2.4617" fill="white"/>
<ellipse cx="45.0643" cy="46.7732" rx="2.46661" ry="2.4617" fill="white"/>
<ellipse cx="59.8631" cy="46.7732" rx="2.46661" ry="2.4617" fill="white"/>
<ellipse cx="74.6639" cy="46.7732" rx="2.46661" ry="2.4617" fill="white"/>
<ellipse cx="89.4627" cy="46.7732" rx="2.46661" ry="2.4617" fill="white"/>
<ellipse cx="104.265" cy="46.7732" rx="2.46661" ry="2.4617" fill="white"/>
<ellipse cx="119.064" cy="46.7732" rx="2.46661" ry="2.4617" fill="white"/>
<ellipse cx="45.0643" cy="61.5418" rx="2.46661" ry="2.4617" fill="white"/>
<ellipse cx="59.8631" cy="61.5418" rx="2.46661" ry="2.4617" fill="white"/>
<ellipse cx="74.6639" cy="61.5418" rx="2.46661" ry="2.4617" fill="white"/>
<ellipse cx="89.4627" cy="61.5418" rx="2.46661" ry="2.4617" fill="white"/>
<ellipse cx="104.265" cy="61.5418" rx="2.46661" ry="2.4617" fill="white"/>
<ellipse cx="119.064" cy="61.5415" rx="2.46661" ry="2.4617" fill="white"/>
<ellipse cx="30.2694" cy="76.3123" rx="2.46661" ry="2.4617" fill="white"/>
<ellipse cx="45.0643" cy="76.3123" rx="2.46661" ry="2.4617" fill="white"/>
<ellipse cx="59.8631" cy="76.3123" rx="2.46661" ry="2.4617" fill="white"/>
<ellipse cx="74.6639" cy="76.3123" rx="2.46661" ry="2.4617" fill="white"/>
<ellipse cx="89.4627" cy="76.3123" rx="2.46661" ry="2.4617" fill="white"/>
<ellipse cx="104.265" cy="76.3123" rx="2.46661" ry="2.4617" fill="white"/>
<ellipse cx="119.064" cy="76.3123" rx="2.46661" ry="2.4617" fill="white"/>
<ellipse cx="30.2694" cy="91.0828" rx="2.46661" ry="2.4617" fill="white"/>
<ellipse cx="59.8631" cy="91.0828" rx="2.46661" ry="2.4617" fill="white"/>
<ellipse cx="74.6639" cy="91.0828" rx="2.46661" ry="2.4617" fill="white"/>
<ellipse cx="89.4627" cy="91.0828" rx="2.46661" ry="2.4617" fill="white"/>
<ellipse cx="104.265" cy="91.0828" rx="2.46661" ry="2.4617" fill="white"/>
<ellipse cx="119.064" cy="91.0828" rx="2.46661" ry="2.4617" fill="white"/>
<ellipse cx="30.2694" cy="105.852" rx="2.46661" ry="2.4617" fill="white"/>
<ellipse cx="45.0643" cy="105.852" rx="2.46661" ry="2.4617" fill="white"/>
<ellipse cx="74.6639" cy="105.852" rx="2.46661" ry="2.4617" fill="white"/>
<ellipse cx="89.4627" cy="105.852" rx="2.46661" ry="2.4617" fill="white"/>
<ellipse cx="104.265" cy="105.852" rx="2.46661" ry="2.4617" fill="white"/>
<ellipse cx="119.064" cy="105.852" rx="2.46661" ry="2.4617" fill="white"/>
<ellipse cx="30.2694" cy="120.623" rx="2.46661" ry="2.4617" fill="white"/>
<ellipse cx="45.0643" cy="120.623" rx="2.46661" ry="2.4617" fill="white"/>
<ellipse cx="74.6639" cy="120.623" rx="2.46661" ry="2.4617" fill="white"/>
<ellipse cx="89.4627" cy="120.623" rx="2.46661" ry="2.4617" fill="white"/>
<ellipse cx="104.265" cy="120.623" rx="2.46661" ry="2.4617" fill="white"/>
<ellipse cx="119.064" cy="120.623" rx="2.46661" ry="2.4617" fill="white"/>
<ellipse cx="30.2694" cy="135.393" rx="2.46661" ry="2.4617" fill="white"/>
<ellipse cx="45.0643" cy="135.393" rx="2.46661" ry="2.4617" fill="white"/>
<ellipse cx="59.8631" cy="135.393" rx="2.46661" ry="2.4617" fill="white"/>
<ellipse cx="74.6639" cy="135.393" rx="2.46661" ry="2.4617" fill="white"/>
<ellipse cx="89.4627" cy="135.393" rx="2.46661" ry="2.4617" fill="white"/>
<ellipse cx="104.265" cy="135.393" rx="2.46661" ry="2.4617" fill="white"/>
<ellipse cx="119.064" cy="135.393" rx="2.46661" ry="2.4617" fill="white"/>
<ellipse cx="30.2694" cy="150.163" rx="2.46661" ry="2.4617" fill="white"/>
<ellipse cx="45.0643" cy="150.163" rx="2.46661" ry="2.4617" fill="white"/>
<ellipse cx="59.8631" cy="150.163" rx="2.46661" ry="2.4617" fill="white"/>
<ellipse cx="74.6639" cy="150.163" rx="2.46661" ry="2.4617" fill="white"/>
<ellipse cx="89.4627" cy="150.163" rx="2.46661" ry="2.4617" fill="white"/>
<ellipse cx="104.265" cy="150.163" rx="2.46661" ry="2.4617" fill="white"/>
<ellipse cx="119.064" cy="150.163" rx="2.46661" ry="2.4617" fill="white"/>
<ellipse cx="15.4666" cy="2.4617" rx="2.46661" ry="2.4617" fill="white"/>
<ellipse cx="15.4666" cy="17.2312" rx="2.46661" ry="2.4617" fill="white"/>
<ellipse cx="15.4666" cy="32.0027" rx="2.46661" ry="2.4617" fill="white"/>
<ellipse cx="15.4666" cy="46.7732" rx="2.46661" ry="2.4617" fill="white"/>
<ellipse cx="15.4666" cy="61.5418" rx="2.46661" ry="2.4617" fill="white"/>
<ellipse cx="15.4666" cy="76.3123" rx="2.46661" ry="2.4617" fill="white"/>
<ellipse cx="15.4666" cy="91.0828" rx="2.46661" ry="2.4617" fill="white"/>
<ellipse cx="15.4666" cy="105.852" rx="2.46661" ry="2.4617" fill="white"/>
<ellipse cx="15.4666" cy="120.623" rx="2.46661" ry="2.4617" fill="white"/>
<ellipse cx="15.4666" cy="135.393" rx="2.46661" ry="2.4617" fill="white"/>
<ellipse cx="15.4666" cy="150.163" rx="2.46661" ry="2.4617" fill="white"/>
<ellipse cx="15.4666" cy="164.934" rx="2.46661" ry="2.4617" fill="white"/>
<ellipse cx="2.51349" cy="2.4617" rx="2.46661" ry="2.4617" fill="white"/>
<ellipse cx="2.51349" cy="17.2312" rx="2.46661" ry="2.4617" fill="white"/>
<ellipse cx="2.51349" cy="32.0027" rx="2.46661" ry="2.4617" fill="white"/>
<ellipse cx="2.51349" cy="46.7732" rx="2.46661" ry="2.4617" fill="white"/>
<ellipse cx="2.51349" cy="61.5418" rx="2.46661" ry="2.4617" fill="white"/>
<ellipse cx="2.51349" cy="76.3123" rx="2.46661" ry="2.4617" fill="white"/>
<ellipse cx="2.51349" cy="91.0828" rx="2.46661" ry="2.4617" fill="white"/>
<ellipse cx="2.51349" cy="105.852" rx="2.46661" ry="2.4617" fill="white"/>
<ellipse cx="2.51349" cy="120.623" rx="2.46661" ry="2.4617" fill="white"/>
<ellipse cx="2.51349" cy="135.393" rx="2.46661" ry="2.4617" fill="white"/>
<ellipse cx="2.51349" cy="150.163" rx="2.46661" ry="2.4617" fill="white"/>
<ellipse cx="2.51349" cy="164.934" rx="2.46661" ry="2.4617" fill="white"/>
<ellipse cx="30.2694" cy="164.934" rx="2.46661" ry="2.4617" fill="white"/>
<ellipse cx="45.0643" cy="164.934" rx="2.46661" ry="2.4617" fill="white"/>
<ellipse cx="59.8631" cy="164.934" rx="2.46661" ry="2.4617" fill="white"/>
<ellipse cx="74.6639" cy="164.934" rx="2.46661" ry="2.4617" fill="white"/>
<ellipse cx="89.4627" cy="164.934" rx="2.46661" ry="2.4617" fill="white"/>
<ellipse cx="104.265" cy="164.934" rx="2.46661" ry="2.4617" fill="white"/>
<ellipse cx="119.064" cy="164.934" rx="2.46661" ry="2.4617" fill="white"/>
<ellipse cx="133.271" cy="2.4617" rx="2.46661" ry="2.4617" fill="white"/>
<ellipse cx="148.07" cy="2.4617" rx="2.46661" ry="2.4617" fill="white"/>
<ellipse cx="162.867" cy="2.4617" rx="2.46661" ry="2.4617" fill="white"/>
<ellipse cx="177.67" cy="2.4617" rx="2.46661" ry="2.4617" fill="white"/>
<ellipse cx="133.271" cy="17.2312" rx="2.46661" ry="2.4617" fill="white"/>
<ellipse cx="148.074" cy="17.2312" rx="2.46661" ry="2.4617" fill="white"/>
<ellipse cx="162.867" cy="17.2312" rx="2.46661" ry="2.4617" fill="white"/>
<ellipse cx="177.67" cy="17.2312" rx="2.46661" ry="2.4617" fill="white"/>
<ellipse cx="133.271" cy="32.0027" rx="2.46661" ry="2.4617" fill="white"/>
<ellipse cx="148.074" cy="32.0027" rx="2.46661" ry="2.4617" fill="white"/>
<ellipse cx="162.867" cy="32.0027" rx="2.46661" ry="2.4617" fill="white"/>
<ellipse cx="177.67" cy="32.0027" rx="2.46661" ry="2.4617" fill="white"/>
<ellipse cx="133.271" cy="46.7732" rx="2.46661" ry="2.4617" fill="white"/>
<ellipse cx="148.074" cy="46.7732" rx="2.46661" ry="2.4617" fill="white"/>
<ellipse cx="162.867" cy="46.7732" rx="2.46661" ry="2.4617" fill="white"/>
<ellipse cx="177.67" cy="46.7732" rx="2.46661" ry="2.4617" fill="white"/>
<ellipse cx="133.271" cy="61.5418" rx="2.46661" ry="2.4617" fill="white"/>
<ellipse cx="148.074" cy="61.5418" rx="2.46661" ry="2.4617" fill="white"/>
<ellipse cx="162.867" cy="61.5418" rx="2.46661" ry="2.4617" fill="white"/>
<ellipse cx="177.67" cy="61.5415" rx="2.46661" ry="2.4617" fill="white"/>
<ellipse cx="133.271" cy="76.3123" rx="2.46661" ry="2.4617" fill="white"/>
<ellipse cx="148.074" cy="76.3123" rx="2.46661" ry="2.4617" fill="white"/>
<ellipse cx="162.867" cy="76.3123" rx="2.46661" ry="2.4617" fill="white"/>
<ellipse cx="177.67" cy="76.3123" rx="2.46661" ry="2.4617" fill="white"/>
<ellipse cx="133.271" cy="91.0828" rx="2.46661" ry="2.4617" fill="white"/>
<ellipse cx="148.074" cy="91.0828" rx="2.46661" ry="2.4617" fill="white"/>
<ellipse cx="162.867" cy="91.0828" rx="2.46661" ry="2.4617" fill="white"/>
<ellipse cx="177.67" cy="91.0828" rx="2.46661" ry="2.4617" fill="white"/>
<ellipse cx="133.271" cy="105.852" rx="2.46661" ry="2.4617" fill="white"/>
<ellipse cx="148.074" cy="105.852" rx="2.46661" ry="2.4617" fill="white"/>
<ellipse cx="162.867" cy="105.852" rx="2.46661" ry="2.4617" fill="white"/>
<ellipse cx="177.67" cy="105.852" rx="2.46661" ry="2.4617" fill="white"/>
<ellipse cx="133.271" cy="120.623" rx="2.46661" ry="2.4617" fill="white"/>
<ellipse cx="148.074" cy="120.623" rx="2.46661" ry="2.4617" fill="white"/>
<ellipse cx="162.867" cy="120.623" rx="2.46661" ry="2.4617" fill="white"/>
<ellipse cx="177.67" cy="120.623" rx="2.46661" ry="2.4617" fill="white"/>
<ellipse cx="133.271" cy="135.393" rx="2.46661" ry="2.4617" fill="white"/>
<ellipse cx="148.074" cy="135.393" rx="2.46661" ry="2.4617" fill="white"/>
<ellipse cx="162.867" cy="135.393" rx="2.46661" ry="2.4617" fill="white"/>
<ellipse cx="177.67" cy="135.393" rx="2.46661" ry="2.4617" fill="white"/>
<ellipse cx="133.271" cy="150.163" rx="2.46661" ry="2.4617" fill="white"/>
<ellipse cx="148.074" cy="150.163" rx="2.46661" ry="2.4617" fill="white"/>
<ellipse cx="162.867" cy="150.163" rx="2.46661" ry="2.4617" fill="white"/>
<ellipse cx="133.271" cy="164.934" rx="2.46661" ry="2.4617" fill="white"/>
<ellipse cx="148.074" cy="164.934" rx="2.46661" ry="2.4617" fill="white"/>
<ellipse cx="162.867" cy="164.934" rx="2.46661" ry="2.4617" fill="white"/>
</svg>
