<svg width="169" height="168" viewBox="0 0 169 168" fill="none" xmlns="http://www.w3.org/2000/svg">
<ellipse cx="3.46661" cy="2.4617" rx="2.46661" ry="2.4617" fill="white"/>
<ellipse cx="18.2674" cy="2.4617" rx="2.46661" ry="2.4617" fill="white"/>
<ellipse cx="47.8631" cy="2.4617" rx="2.46661" ry="2.4617" fill="white"/>
<ellipse cx="62.6639" cy="2.4617" rx="2.46661" ry="2.4617" fill="white"/>
<ellipse cx="77.4627" cy="2.4617" rx="2.46661" ry="2.4617" fill="white"/>
<ellipse cx="92.2654" cy="2.4617" rx="2.46661" ry="2.4617" fill="white"/>
<ellipse cx="107.062" cy="2.4617" rx="2.46661" ry="2.4617" fill="white"/>
<ellipse cx="3.46466" cy="17.2312" rx="2.46661" ry="2.4617" fill="white"/>
<ellipse cx="18.2694" cy="17.2312" rx="2.46661" ry="2.4617" fill="white"/>
<ellipse cx="33.0643" cy="17.2312" rx="2.46661" ry="2.4617" fill="white"/>
<ellipse cx="62.6639" cy="17.2312" rx="2.46661" ry="2.4617" fill="white"/>
<ellipse cx="77.4627" cy="17.2312" rx="2.46661" ry="2.4617" fill="white"/>
<ellipse cx="92.2654" cy="17.2312" rx="2.46661" ry="2.4617" fill="white"/>
<ellipse cx="107.064" cy="17.2312" rx="2.46661" ry="2.4617" fill="white"/>
<ellipse cx="3.46466" cy="32.0027" rx="2.46661" ry="2.4617" fill="white"/>
<ellipse cx="18.2694" cy="32.0027" rx="2.46661" ry="2.4617" fill="white"/>
<ellipse cx="33.0643" cy="32.0027" rx="2.46661" ry="2.4617" fill="white"/>
<ellipse cx="47.8631" cy="32.0027" rx="2.46661" ry="2.4617" fill="white"/>
<ellipse cx="77.4627" cy="32.0027" rx="2.46661" ry="2.4617" fill="white"/>
<ellipse cx="92.2654" cy="32.0027" rx="2.46661" ry="2.4617" fill="white"/>
<ellipse cx="107.064" cy="32.0027" rx="2.46661" ry="2.4617" fill="white"/>
<ellipse cx="3.46466" cy="46.7732" rx="2.46661" ry="2.4617" fill="white"/>
<ellipse cx="18.2694" cy="46.7732" rx="2.46661" ry="2.4617" fill="white"/>
<ellipse cx="33.0643" cy="46.7732" rx="2.46661" ry="2.4617" fill="white"/>
<ellipse cx="47.8631" cy="46.7732" rx="2.46661" ry="2.4617" fill="white"/>
<ellipse cx="62.6639" cy="46.7732" rx="2.46661" ry="2.4617" fill="white"/>
<ellipse cx="92.2654" cy="46.7732" rx="2.46661" ry="2.4617" fill="white"/>
<ellipse cx="107.064" cy="46.7732" rx="2.46661" ry="2.4617" fill="white"/>
<ellipse cx="3.46466" cy="61.5418" rx="2.46661" ry="2.4617" fill="white"/>
<ellipse cx="18.2694" cy="61.5418" rx="2.46661" ry="2.4617" fill="white"/>
<ellipse cx="33.0643" cy="61.5418" rx="2.46661" ry="2.4617" fill="white"/>
<ellipse cx="47.8631" cy="61.5418" rx="2.46661" ry="2.4617" fill="white"/>
<ellipse cx="62.6639" cy="61.5418" rx="2.46661" ry="2.4617" fill="white"/>
<ellipse cx="77.4627" cy="61.5418" rx="2.46661" ry="2.4617" fill="white"/>
<ellipse cx="92.2654" cy="61.5418" rx="2.46661" ry="2.4617" fill="white"/>
<ellipse cx="107.064" cy="61.5415" rx="2.46661" ry="2.4617" fill="white"/>
<ellipse cx="3.46466" cy="76.3123" rx="2.46661" ry="2.4617" fill="white"/>
<ellipse cx="18.2694" cy="76.3123" rx="2.46661" ry="2.4617" fill="white"/>
<ellipse cx="33.0643" cy="76.3123" rx="2.46661" ry="2.4617" fill="white"/>
<ellipse cx="47.8631" cy="76.3123" rx="2.46661" ry="2.4617" fill="white"/>
<ellipse cx="62.6639" cy="76.3123" rx="2.46661" ry="2.4617" fill="white"/>
<ellipse cx="77.4627" cy="76.3123" rx="2.46661" ry="2.4617" fill="white"/>
<ellipse cx="107.064" cy="76.3123" rx="2.46661" ry="2.4617" fill="white"/>
<ellipse cx="3.46466" cy="91.0828" rx="2.46661" ry="2.4617" fill="white"/>
<ellipse cx="18.2694" cy="91.0828" rx="2.46661" ry="2.4617" fill="white"/>
<ellipse cx="33.0643" cy="91.0828" rx="2.46661" ry="2.4617" fill="white"/>
<ellipse cx="47.8631" cy="91.0828" rx="2.46661" ry="2.4617" fill="white"/>
<ellipse cx="62.6639" cy="91.0828" rx="2.46661" ry="2.4617" fill="white"/>
<ellipse cx="77.4627" cy="91.0828" rx="2.46661" ry="2.4617" fill="white"/>
<ellipse cx="92.2654" cy="91.0828" rx="2.46661" ry="2.4617" fill="white"/>
<ellipse cx="3.46466" cy="105.852" rx="2.46661" ry="2.4617" fill="white"/>
<ellipse cx="18.2694" cy="105.852" rx="2.46661" ry="2.4617" fill="white"/>
<ellipse cx="33.0643" cy="105.852" rx="2.46661" ry="2.4617" fill="white"/>
<ellipse cx="47.8631" cy="105.852" rx="2.46661" ry="2.4617" fill="white"/>
<ellipse cx="62.6639" cy="105.852" rx="2.46661" ry="2.4617" fill="white"/>
<ellipse cx="77.4627" cy="105.852" rx="2.46661" ry="2.4617" fill="white"/>
<ellipse cx="92.2654" cy="105.852" rx="2.46661" ry="2.4617" fill="white"/>
<ellipse cx="107.064" cy="105.852" rx="2.46661" ry="2.4617" fill="white"/>
<ellipse cx="3.46466" cy="120.623" rx="2.46661" ry="2.4617" fill="white"/>
<ellipse cx="18.2694" cy="120.623" rx="2.46661" ry="2.4617" fill="white"/>
<ellipse cx="33.0643" cy="120.623" rx="2.46661" ry="2.4617" fill="white"/>
<ellipse cx="47.8631" cy="120.623" rx="2.46661" ry="2.4617" fill="white"/>
<ellipse cx="62.6639" cy="120.623" rx="2.46661" ry="2.4617" fill="white"/>
<ellipse cx="77.4627" cy="120.623" rx="2.46661" ry="2.4617" fill="white"/>
<ellipse cx="92.2654" cy="120.623" rx="2.46661" ry="2.4617" fill="white"/>
<ellipse cx="107.064" cy="120.623" rx="2.46661" ry="2.4617" fill="white"/>
<ellipse cx="3.46466" cy="135.393" rx="2.46661" ry="2.4617" fill="white"/>
<ellipse cx="18.2694" cy="135.393" rx="2.46661" ry="2.4617" fill="white"/>
<ellipse cx="33.0643" cy="135.393" rx="2.46661" ry="2.4617" fill="white"/>
<ellipse cx="47.8631" cy="135.393" rx="2.46661" ry="2.4617" fill="white"/>
<ellipse cx="62.6639" cy="135.393" rx="2.46661" ry="2.4617" fill="white"/>
<ellipse cx="77.4627" cy="135.393" rx="2.46661" ry="2.4617" fill="white"/>
<ellipse cx="92.2654" cy="135.393" rx="2.46661" ry="2.4617" fill="white"/>
<ellipse cx="107.064" cy="135.393" rx="2.46661" ry="2.4617" fill="white"/>
<ellipse cx="3.46466" cy="150.163" rx="2.46661" ry="2.4617" fill="white"/>
<ellipse cx="18.2694" cy="150.163" rx="2.46661" ry="2.4617" fill="white"/>
<ellipse cx="33.0643" cy="150.163" rx="2.46661" ry="2.4617" fill="white"/>
<ellipse cx="47.8631" cy="150.163" rx="2.46661" ry="2.4617" fill="white"/>
<ellipse cx="62.6639" cy="150.163" rx="2.46661" ry="2.4617" fill="white"/>
<ellipse cx="77.4627" cy="150.163" rx="2.46661" ry="2.4617" fill="white"/>
<ellipse cx="92.2654" cy="150.163" rx="2.46661" ry="2.4617" fill="white"/>
<ellipse cx="107.064" cy="150.163" rx="2.46661" ry="2.4617" fill="white"/>
<ellipse cx="3.46466" cy="164.934" rx="2.46661" ry="2.4617" fill="white"/>
<ellipse cx="18.2694" cy="164.934" rx="2.46661" ry="2.4617" fill="white"/>
<ellipse cx="33.0643" cy="164.934" rx="2.46661" ry="2.4617" fill="white"/>
<ellipse cx="47.8631" cy="164.934" rx="2.46661" ry="2.4617" fill="white"/>
<ellipse cx="62.6639" cy="164.934" rx="2.46661" ry="2.4617" fill="white"/>
<ellipse cx="77.4627" cy="164.934" rx="2.46661" ry="2.4617" fill="white"/>
<ellipse cx="92.2654" cy="164.934" rx="2.46661" ry="2.4617" fill="white"/>
<ellipse cx="107.064" cy="164.934" rx="2.46661" ry="2.4617" fill="white"/>
<ellipse cx="121.271" cy="2.4617" rx="2.46661" ry="2.4617" fill="white"/>
<ellipse cx="136.07" cy="2.4617" rx="2.46661" ry="2.4617" fill="white"/>
<ellipse cx="150.867" cy="2.4617" rx="2.46661" ry="2.4617" fill="white"/>
<ellipse cx="165.67" cy="2.4617" rx="2.46661" ry="2.4617" fill="white"/>
<ellipse cx="121.271" cy="17.2312" rx="2.46661" ry="2.4617" fill="white"/>
<ellipse cx="136.074" cy="17.2312" rx="2.46661" ry="2.4617" fill="white"/>
<ellipse cx="150.867" cy="17.2312" rx="2.46661" ry="2.4617" fill="white"/>
<ellipse cx="165.67" cy="17.2312" rx="2.46661" ry="2.4617" fill="white"/>
<ellipse cx="121.271" cy="32.0027" rx="2.46661" ry="2.4617" fill="white"/>
<ellipse cx="136.074" cy="32.0027" rx="2.46661" ry="2.4617" fill="white"/>
<ellipse cx="150.867" cy="32.0027" rx="2.46661" ry="2.4617" fill="white"/>
<ellipse cx="165.67" cy="32.0027" rx="2.46661" ry="2.4617" fill="white"/>
<ellipse cx="121.271" cy="46.7732" rx="2.46661" ry="2.4617" fill="white"/>
<ellipse cx="136.074" cy="46.7732" rx="2.46661" ry="2.4617" fill="white"/>
<ellipse cx="150.867" cy="46.7732" rx="2.46661" ry="2.4617" fill="white"/>
<ellipse cx="165.67" cy="46.7732" rx="2.46661" ry="2.4617" fill="white"/>
<ellipse cx="121.271" cy="61.5418" rx="2.46661" ry="2.4617" fill="white"/>
<ellipse cx="136.074" cy="61.5418" rx="2.46661" ry="2.4617" fill="white"/>
<ellipse cx="150.867" cy="61.5418" rx="2.46661" ry="2.4617" fill="white"/>
<ellipse cx="165.67" cy="61.5415" rx="2.46661" ry="2.4617" fill="white"/>
<ellipse cx="121.271" cy="76.3123" rx="2.46661" ry="2.4617" fill="white"/>
<ellipse cx="136.074" cy="76.3123" rx="2.46661" ry="2.4617" fill="white"/>
<ellipse cx="150.867" cy="76.3123" rx="2.46661" ry="2.4617" fill="white"/>
<ellipse cx="165.67" cy="76.3123" rx="2.46661" ry="2.4617" fill="white"/>
<ellipse cx="121.271" cy="91.0828" rx="2.46661" ry="2.4617" fill="white"/>
<ellipse cx="136.074" cy="91.0828" rx="2.46661" ry="2.4617" fill="white"/>
<ellipse cx="150.867" cy="91.0828" rx="2.46661" ry="2.4617" fill="white"/>
<ellipse cx="165.67" cy="91.0828" rx="2.46661" ry="2.4617" fill="white"/>
<ellipse cx="136.074" cy="105.852" rx="2.46661" ry="2.4617" fill="white"/>
<ellipse cx="150.867" cy="105.852" rx="2.46661" ry="2.4617" fill="white"/>
<ellipse cx="165.67" cy="105.852" rx="2.46661" ry="2.4617" fill="white"/>
<ellipse cx="136.074" cy="120.623" rx="2.46661" ry="2.4617" fill="white"/>
<ellipse cx="150.867" cy="120.623" rx="2.46661" ry="2.4617" fill="white"/>
<ellipse cx="165.67" cy="120.623" rx="2.46661" ry="2.4617" fill="white"/>
<ellipse cx="136.074" cy="135.393" rx="2.46661" ry="2.4617" fill="white"/>
<ellipse cx="150.867" cy="135.393" rx="2.46661" ry="2.4617" fill="white"/>
<ellipse cx="165.67" cy="135.393" rx="2.46661" ry="2.4617" fill="white"/>
<ellipse cx="136.074" cy="150.163" rx="2.46661" ry="2.4617" fill="white"/>
<ellipse cx="150.867" cy="150.163" rx="2.46661" ry="2.4617" fill="white"/>
<ellipse cx="165.67" cy="150.163" rx="2.46661" ry="2.4617" fill="white"/>
<ellipse cx="136.074" cy="164.934" rx="2.46661" ry="2.4617" fill="white"/>
<ellipse cx="150.867" cy="164.934" rx="2.46661" ry="2.4617" fill="white"/>
<ellipse cx="165.67" cy="164.934" rx="2.46661" ry="2.4617" fill="white"/>
</svg>
